# xmcd
#
# Track frame offsets:
#	150
#	12302
#	25517
#	36473
#	44066
#	54986
#	62718
#	73303
#	80955
#	91757
#	101065
#	117117
#
# Disc length: 1650 seconds
#
# Revision: 1
# Processed by: cddbd v1.5.2PL0 Copyright (c) Steve Scherf et al.
# Submitted via: audiograbber 1.82.02
#
DISCID=a406700c
DTITLE=Dakota Pagan - Showstopper
DYEAR=2004
DGENRE=Bluegrass
TTITLE0=Showstopper
TTITLE1=That's my story and I'm stickin to it
TTITLE2=Lover come back to me
TTITLE3=Land af a 1000
TTITLE4=Orange colored sky
TTITLE5=Orange colored sky
TTITLE6=Old time rock'n'roll
TTITLE7=Them there eyes
TTITLE8=Shout
TTITLE9=Daddy's money
TTITLE10=When you wish apon a star
TTITLE11=I'll fly away
EXTD=
EXTT0=
EXTT1=
EXTT2=
EXTT3=
EXTT4=
EXTT5=
EXTT6=
EXTT7=
EXTT8=
EXTT9=
EXTT10=
EXTT11=
PLAYORDER=
